<svg width="24" height="25" viewBox="0 0 24 25" fill="none" xmlns="http://www.w3.org/2000/svg">
<path d="M18.7937 13.2259C18.7822 11.2587 19.6702 9.77602 21.4634 8.68279C20.4605 7.24054 18.9432 6.4473 16.9431 6.29442C15.0493 6.14443 12.9774 7.40207 12.2188 7.40207C11.417 7.40207 9.58362 6.34635 8.14103 6.34635C5.16391 6.3925 2 8.72894 2 13.4826C2 14.8874 2.25576 16.3383 2.76727 17.8324C3.4512 19.7997 5.91681 24.6197 8.48875 24.5418C9.83362 24.5101 10.7848 23.5841 12.5349 23.5841C14.2332 23.5841 15.1126 24.5418 16.6126 24.5418C19.2075 24.5043 21.4375 20.1227 22.087 18.1497C18.6069 16.5027 18.7937 13.3268 18.7937 13.2259ZM15.7735 4.42815C17.2305 2.69168 17.0983 1.11097 17.0552 0.542725C15.7678 0.617722 14.2792 1.4225 13.4315 2.41188C12.4975 3.47338 11.9486 4.78583 12.0665 6.26558C13.4573 6.37231 14.7275 5.65406 15.7735 4.42815Z" fill="white"/>
</svg>
