<svg width="21" height="19" viewBox="0 0 21 19" fill="none" xmlns="http://www.w3.org/2000/svg">
<path opacity="0.6" fill-rule="evenodd" clip-rule="evenodd" d="M4.74856 10.3311C2.67702 10.3327 0.998896 12.0131 1 14.0846C1.00111 16.1562 2.68102 17.8347 4.75256 17.8342C6.8241 17.8336 8.50313 16.1542 8.50313 14.0826C8.50286 13.0872 8.10711 12.1327 7.40296 11.4291C6.69882 10.7255 5.74398 10.3305 4.74856 10.3311Z" stroke="#00AEFF" stroke-width="2"/>
<path fill-rule="evenodd" clip-rule="evenodd" d="M15.247 10.3311C13.1754 10.3327 11.4973 12.0131 11.4984 14.0846C11.4995 16.1562 13.1794 17.8347 15.251 17.8342C17.3225 17.8336 19.0015 16.1542 19.0015 14.0826C19.0013 13.0872 18.6055 12.1327 17.9014 11.4291C17.1972 10.7255 16.2424 10.3305 15.247 10.3311V10.3311Z" stroke="#00AEFF" stroke-width="2"/>
<path opacity="0.8" fill-rule="evenodd" clip-rule="evenodd" d="M9.99771 1.25122C7.92617 1.25288 6.24804 2.93324 6.24915 5.00478C6.25025 7.07632 7.93017 8.7549 10.0017 8.75435C12.0732 8.75379 13.7523 7.07432 13.7523 5.00278C13.752 4.00737 13.3563 3.05284 12.6521 2.34926C11.948 1.64568 10.9931 1.25069 9.99771 1.25122Z" stroke="#00AEFF" stroke-width="2"/>
</svg>
