<svg width="20" height="21" viewBox="0 0 20 21" fill="none" xmlns="http://www.w3.org/2000/svg">
<path opacity="0.4" d="M16.6119 5.04273C16.3819 4.74373 16.1379 4.45273 15.8639 4.17873C12.3489 0.66373 6.65094 0.66373 3.13594 4.17873C2.86194 4.45273 2.61894 4.74373 2.38794 5.04273" stroke="#00AEFF" stroke-width="1.5" stroke-linecap="round" stroke-linejoin="round"/>
<path opacity="0.4" d="M2.38794 16.0427C2.61794 16.3417 2.86194 16.6327 3.13594 16.9067C6.65094 20.4217 12.3489 20.4217 15.8639 16.9067C16.1379 16.6327 16.3809 16.3417 16.6119 16.0427" stroke="#00AEFF" stroke-width="1.5" stroke-linecap="round" stroke-linejoin="round"/>
<path fill-rule="evenodd" clip-rule="evenodd" d="M4.021 13.1138H1V10.5828H4.019C4.718 10.5828 5.285 11.1498 5.285 11.8488V11.8488C5.286 12.5478 4.719 13.1138 4.021 13.1138Z" stroke="#00AEFF" stroke-width="1.5" stroke-linecap="round" stroke-linejoin="round"/>
<path d="M1 10.5827V7.97168H3.7C4.421 7.97168 5.006 8.55668 5.006 9.27768V9.27768C5.006 9.99868 4.421 10.5837 3.7 10.5837" stroke="#00AEFF" stroke-width="1.5" stroke-linecap="round" stroke-linejoin="round"/>
<path d="M14.714 7.97168L16.857 10.8867L19 7.97168" stroke="#00AEFF" stroke-width="1.5" stroke-linecap="round" stroke-linejoin="round"/>
<path d="M16.86 13.0727V10.8827" stroke="#00AEFF" stroke-width="1.5" stroke-linecap="round" stroke-linejoin="round"/>
<path d="M12.1431 7.97168V10.9717C12.1431 12.1547 11.1841 13.1147 10.0001 13.1147V13.1147C8.81706 13.1147 7.85706 12.1557 7.85706 10.9717V7.97168" stroke="#00AEFF" stroke-width="1.5" stroke-linecap="round" stroke-linejoin="round"/>
</svg>
