<svg width="21" height="22" viewBox="0 0 21 22" fill="none" xmlns="http://www.w3.org/2000/svg">
<path fill-rule="evenodd" clip-rule="evenodd" d="M10.5 20.512V20.512C5.25262 20.512 1 16.2593 1 11.012V11.012C1 5.76458 5.25262 1.51196 10.5 1.51196V1.51196C15.7474 1.51196 20 5.76458 20 11.012V11.012C20 16.2593 15.7474 20.512 10.5 20.512Z" stroke="white" stroke-width="1.5" stroke-linecap="round" stroke-linejoin="round"/>
<path d="M10.5 10.512L10.5 15.512" stroke="white" stroke-width="1.5" stroke-linecap="round" stroke-linejoin="round"/>
<path d="M10.501 7.16196C10.584 7.16196 10.651 7.09496 10.65 7.01196C10.65 6.92896 10.583 6.86196 10.5 6.86196C10.417 6.86196 10.35 6.92896 10.35 7.01196C10.35 7.09396 10.417 7.16196 10.501 7.16196" stroke="white" stroke-width="1.5" stroke-linecap="round" stroke-linejoin="round"/>
</svg>
