<svg width="20" height="19" viewBox="0 0 20 19" fill="none" xmlns="http://www.w3.org/2000/svg">
<path d="M15.5398 16.0048L15.1826 15.108C15.0021 14.6529 14.7215 14.2448 14.3623 13.9122L14.297 13.852C13.7318 13.3276 12.989 13.0358 12.2177 13.0358H7.10191C6.33057 13.0358 5.58779 13.3276 5.02153 13.851L4.95623 13.9122C4.59709 14.2448 4.31752 14.6529 4.13591 15.108L3.77881 16.0048" stroke="white" stroke-width="1.77404" stroke-linecap="round" stroke-linejoin="round"/>
<path d="M12.1848 2.85844C13.5793 4.25302 13.5793 6.51406 12.1848 7.90864C10.7902 9.30322 8.52914 9.30322 7.13456 7.90864C5.73998 6.51406 5.73998 4.25302 7.13456 2.85844C8.52914 1.46385 10.7902 1.46385 12.1848 2.85844" stroke="white" stroke-width="1.77404" stroke-linecap="round" stroke-linejoin="round"/>
</svg>
